<svg width="18" height="18" viewBox="0 0 18 18" fill="none" xmlns="http://www.w3.org/2000/svg">
<path fill-rule="evenodd" clip-rule="evenodd" d="M10.4744 0H4.15326C1.66306 0 0 1.78392 0 4.33604V10.2916C0 12.5969 1.35056 14.2725 3.44743 14.5777C3.797 16.6334 5.34054 18 7.52558 18H13.8467L14.0235 17.997C16.4195 17.9147 18 16.1577 18 13.664V7.70838L17.9972 7.52724C17.9282 5.31567 16.5941 3.71942 14.5525 3.42232C14.203 1.36661 12.6594 0 10.4744 0ZM14.6277 4.59273V10.2916C14.6277 12.8462 12.9691 14.6277 10.4744 14.6277H4.61754C4.93302 15.961 5.92814 16.7984 7.35954 16.8583L7.52558 16.8617H13.8467C15.6379 16.8617 16.7903 15.6822 16.8585 13.8387L16.8617 13.664V7.70838C16.8617 6.05538 16.0169 4.90086 14.6277 4.59273ZM4.15326 1.13825H10.4744C12.3216 1.13825 13.4894 2.39263 13.4894 4.33604V10.2916C13.4894 12.235 12.3216 13.4894 10.4744 13.4894H4.15326C2.30606 13.4894 1.13825 12.235 1.13825 10.2916V4.33604C1.13825 2.3954 2.31024 1.13825 4.15326 1.13825Z" fill="#FF7A28"/>
</svg>
