<svg width="265" height="81" viewBox="0 0 265 81" fill="none" xmlns="http://www.w3.org/2000/svg">
<circle cx="32.625" cy="48.3745" r="32.625" fill="#FF8266"/>
<rect x="18" width="29.25" height="11.25" rx="5.625" fill="#FF8266"/>
<path fill-rule="evenodd" clip-rule="evenodd" d="M45.0001 43.875L45 43.9335V61.8752C45 61.8752 45 61.8752 44.9999 61.8752V61.8752C44.9999 61.8752 44.9999 61.8753 44.9999 61.8753C44.9997 63.739 43.4887 65.2498 41.6249 65.2498C40.1479 65.2498 38.8926 64.3011 38.4349 62.9798C38.2316 62.3927 37.7463 61.8752 37.1249 61.8752V61.8752C36.5036 61.8752 36.0183 62.3927 35.8149 62.9798C35.3573 64.3011 34.102 65.2498 32.625 65.2498C31.148 65.2498 29.8927 64.3011 29.435 62.9799C29.2317 62.3927 28.7463 61.8752 28.125 61.8752V61.8752C27.5036 61.8752 27.0183 62.3927 26.8149 62.9799C26.3573 64.3011 25.1019 65.2498 23.625 65.2498C21.7611 65.2498 20.2502 63.739 20.25 61.8752V61.8748V43.8753C20.25 43.8753 20.25 43.8752 20.25 43.8752V43.8752C20.2501 43.8752 20.2501 43.8752 20.2501 43.8752L20.2501 43.875C20.2501 37.0405 25.7906 31.5 32.6251 31.5C39.4596 31.5 45.0001 37.0405 45.0001 43.875Z" fill="white"/>
<path d="M111.616 59.72C114.96 59.72 117.832 59 120.232 57.56C122.632 56.104 124.472 54.112 125.752 51.584C127.048 49.056 127.696 46.16 127.696 42.896C127.696 42.8 127.688 42.504 127.672 42.008C127.656 41.512 127.632 41.136 127.6 40.88H115.36V45.416H121.456C121.008 48.392 119.968 50.624 118.336 52.112C116.704 53.584 114.584 54.304 111.976 54.272C108.504 54.224 105.896 53.064 104.152 50.792C102.408 48.52 101.544 45.496 101.56 41.72C101.576 39.192 101.968 36.984 102.736 35.096C103.504 33.208 104.656 31.744 106.192 30.704C107.728 29.664 109.656 29.16 111.976 29.192C114.264 29.208 116.152 29.824 117.64 31.04C119.144 32.256 120.224 33.888 120.88 35.936L126.784 35C125.904 31.448 124.216 28.68 121.72 26.696C119.24 24.712 115.872 23.72 111.616 23.72C108.544 23.72 105.784 24.432 103.336 25.856C100.904 27.28 98.976 29.336 97.552 32.024C96.144 34.712 95.44 37.944 95.44 41.72C95.44 45.56 96.16 48.824 97.6 51.512C99.056 54.184 101.008 56.224 103.456 57.632C105.904 59.024 108.624 59.72 111.616 59.72ZM143.964 59.72C146.556 59.72 148.82 59.144 150.756 57.992C152.692 56.824 154.196 55.216 155.268 53.168C156.356 51.104 156.9 48.728 156.9 46.04C156.9 43.368 156.364 41.008 155.292 38.96C154.22 36.896 152.716 35.28 150.78 34.112C148.844 32.944 146.572 32.36 143.964 32.36C141.42 32.36 139.18 32.936 137.244 34.088C135.308 35.24 133.796 36.84 132.708 38.888C131.62 40.936 131.076 43.32 131.076 46.04C131.076 48.712 131.604 51.08 132.66 53.144C133.732 55.192 135.236 56.8 137.172 57.968C139.108 59.136 141.372 59.72 143.964 59.72ZM143.964 54.296C141.74 54.296 140.052 53.552 138.9 52.064C137.764 50.56 137.196 48.552 137.196 46.04C137.196 43.592 137.74 41.608 138.828 40.088C139.932 38.552 141.644 37.784 143.964 37.784C146.236 37.784 147.94 38.536 149.076 40.04C150.212 41.528 150.78 43.528 150.78 46.04C150.78 48.472 150.212 50.456 149.076 51.992C147.956 53.528 146.252 54.296 143.964 54.296ZM171.587 59.72C174.931 59.72 177.547 58.976 179.435 57.488C181.339 56 182.291 53.952 182.291 51.344C182.291 49.328 181.651 47.744 180.371 46.592C179.107 45.44 176.923 44.464 173.819 43.664C171.803 43.152 170.283 42.72 169.259 42.368C168.251 42.016 167.579 41.664 167.243 41.312C166.907 40.96 166.739 40.536 166.739 40.04C166.739 39.176 167.155 38.504 167.987 38.024C168.819 37.528 169.915 37.312 171.275 37.376C172.683 37.456 173.811 37.816 174.659 38.456C175.523 39.096 176.035 39.968 176.195 41.072L182.099 40.016C181.779 37.68 180.635 35.824 178.667 34.448C176.699 33.056 174.203 32.36 171.179 32.36C168.091 32.36 165.619 33.08 163.763 34.52C161.907 35.96 160.979 37.896 160.979 40.328C160.979 42.264 161.627 43.792 162.923 44.912C164.235 46.032 166.515 47.016 169.763 47.864C171.715 48.376 173.155 48.808 174.083 49.16C175.027 49.496 175.643 49.84 175.931 50.192C176.219 50.544 176.363 51.016 176.363 51.608C176.363 52.568 175.979 53.328 175.211 53.888C174.443 54.432 173.371 54.704 171.995 54.704C170.411 54.704 169.091 54.336 168.035 53.6C166.995 52.864 166.331 51.856 166.043 50.576L160.139 51.488C160.571 54.096 161.787 56.12 163.787 57.56C165.787 59 168.387 59.72 171.587 59.72ZM197.268 59.744C199.14 59.744 200.78 59.424 202.188 58.784C203.612 58.128 204.796 57.24 205.74 56.12V59H210.852V33.08H205.044V46.4C205.044 48.496 204.74 50.12 204.132 51.272C203.54 52.408 202.78 53.2 201.852 53.648C200.924 54.08 199.964 54.296 198.972 54.296C197.596 54.296 196.5 54 195.684 53.408C194.868 52.8 194.26 52.04 193.86 51.128C193.476 50.2 193.22 49.24 193.092 48.248C192.98 47.256 192.924 46.36 192.924 45.56V33.08H187.068V47.552C187.068 48.16 187.116 48.968 187.212 49.976C187.324 50.984 187.556 52.048 187.908 53.168C188.26 54.288 188.804 55.352 189.54 56.36C190.276 57.352 191.268 58.168 192.516 58.808C193.78 59.432 195.364 59.744 197.268 59.744ZM232.786 59V54.152C231.17 54.392 229.73 54.456 228.466 54.344C227.202 54.232 226.282 53.696 225.706 52.736C225.402 52.24 225.234 51.6 225.202 50.816C225.186 50.016 225.178 49.104 225.178 48.08V37.616H232.786V33.08H225.178V25.88H219.418V33.08H214.714V37.616H219.418V48.416C219.418 49.904 219.434 51.232 219.466 52.4C219.498 53.552 219.81 54.688 220.402 55.808C221.074 57.04 222.058 57.944 223.354 58.52C224.65 59.08 226.114 59.376 227.746 59.408C229.394 59.456 231.074 59.32 232.786 59ZM248.496 59.72C251.088 59.72 253.352 59.144 255.288 57.992C257.224 56.824 258.728 55.216 259.8 53.168C260.888 51.104 261.432 48.728 261.432 46.04C261.432 43.368 260.896 41.008 259.824 38.96C258.752 36.896 257.248 35.28 255.312 34.112C253.376 32.944 251.104 32.36 248.496 32.36C245.952 32.36 243.712 32.936 241.776 34.088C239.84 35.24 238.328 36.84 237.24 38.888C236.152 40.936 235.608 43.32 235.608 46.04C235.608 48.712 236.136 51.08 237.192 53.144C238.264 55.192 239.768 56.8 241.704 57.968C243.64 59.136 245.904 59.72 248.496 59.72ZM248.496 54.296C246.272 54.296 244.584 53.552 243.432 52.064C242.296 50.56 241.728 48.552 241.728 46.04C241.728 43.592 242.272 41.608 243.36 40.088C244.464 38.552 246.176 37.784 248.496 37.784C250.768 37.784 252.472 38.536 253.608 40.04C254.744 41.528 255.312 43.528 255.312 46.04C255.312 48.472 254.744 50.456 253.608 51.992C252.488 53.528 250.784 54.296 248.496 54.296Z" fill="#FF8266"/>
</svg>
