<svg width="28" height="28" viewBox="0 0 28 28" fill="none" xmlns="http://www.w3.org/2000/svg">
<path fill-rule="evenodd" clip-rule="evenodd" d="M13.3182 16.8342C13.0645 17.0684 12.6691 17.0526 12.435 16.7989L10.4158 14.6114C10.1948 14.372 10.1948 14.003 10.4157 13.7636L12.435 11.5761C12.6691 11.3224 13.0645 11.3066 13.3182 11.5407C13.5718 11.7749 13.5876 12.1703 13.3535 12.4239L12.3025 13.5625L18.375 13.5625C18.7202 13.5625 19 13.8423 19 14.1875C19 14.5327 18.7202 14.8125 18.375 14.8125L12.3025 14.8125L13.3535 15.9511C13.5876 16.2047 13.5718 16.6001 13.3182 16.8342Z" fill="#777E91"/>
<rect x="27" y="27" width="26" height="26" rx="13" transform="rotate(-180 27 27)" stroke="#E6E8EC" stroke-width="2"/>
</svg>
