<svg width="24" height="17" viewBox="0 0 24 17" fill="none" xmlns="http://www.w3.org/2000/svg">
<path d="M19.6971 8.68655L23.4038 4.96655C23.6571 4.69989 23.6571 4.28655 23.4038 4.01989L19.6971 0.299886C19.2838 -0.126782 18.5638 0.179885 18.5638 0.766553L18.5638 3.16655L10.5504 3.16655C9.81708 3.16655 9.21708 3.76655 9.21708 4.49988C9.21708 5.23322 9.81708 5.83322 10.5504 5.83322L18.5638 5.83322L18.5638 8.21988C18.5638 8.81988 19.2838 9.11322 19.6971 8.68655ZM0.350417 12.9665L4.05708 16.6865C4.47041 17.1132 5.19041 16.8065 5.19041 16.2199L5.19041 13.8332L13.2171 13.8332C13.9504 13.8332 14.5504 13.2332 14.5504 12.4999C14.5504 11.7665 13.9504 11.1665 13.2171 11.1665L5.20375 11.1665L5.20375 8.77988C5.20375 8.17988 4.48375 7.88655 4.07041 8.31322L0.363749 12.0332C0.0970825 12.2865 0.0970825 12.7132 0.350417 12.9665Z" fill="#A9A9A9"/>
</svg>
