<svg width="154" height="245" viewBox="0 0 154 245" fill="none" xmlns="http://www.w3.org/2000/svg">
<path d="M152.802 128.273L0.787109 0.197021H128.764C142.663 0.197021 153.893 11.5328 153.763 25.4307L152.802 128.273Z" fill="#FFCB66"/>
<path d="M152.802 128.273L0.787109 0.197021H128.764C142.663 0.197021 153.893 11.5328 153.763 25.4307L152.802 128.273Z" fill="#70CF98"/>
<circle cx="101.932" cy="181.538" r="17.3561" fill="#FFCB66"/>
<circle cx="101.932" cy="181.538" r="17.3561" fill="#FF8266"/>
<circle cx="19.3404" cy="120.493" r="17.3561" fill="#FFCB66"/>
<circle cx="19.3404" cy="120.493" r="17.3561" fill="#FF8266"/>
<path d="M125.207 207.273L139.637 207.273C139.637 238.567 114.899 245.018 102.531 244.331C72.8458 244.331 65.4246 219.626 65.4246 207.273L80.8855 207.273C80.8855 223.743 95.3156 228.547 102.531 228.89C120.671 228.89 125.207 214.479 125.207 207.273Z" fill="#FFCB66"/>
<path d="M125.207 207.273L139.637 207.273C139.637 238.567 114.899 245.018 102.531 244.331C72.8458 244.331 65.4246 219.626 65.4246 207.273L80.8855 207.273C80.8855 223.743 95.3156 228.547 102.531 228.89C120.671 228.89 125.207 214.479 125.207 207.273Z" fill="#FFCB66"/>
<path d="M55.8008 182.137L55.8008 197.597C39.3304 197.597 34.5265 212.028 34.1834 219.243L18.7424 219.243C18.7424 189.558 43.448 182.137 55.8008 182.137Z" fill="#725DFF"/>
<path d="M45.0762 100.809V86.3792C76.3699 86.3792 82.8208 111.117 82.1345 123.485C82.1345 153.17 57.429 160.591 45.0762 160.591L45.0762 145.13C61.5466 145.13 66.3504 130.7 66.6936 123.485C66.6936 105.344 52.282 100.809 45.0762 100.809Z" fill="#FFCB66"/>
<path d="M45.0762 100.809V86.3792C76.3699 86.3792 82.8208 111.117 82.1345 123.485C82.1345 153.17 57.429 160.591 45.0762 160.591L45.0762 145.13C61.5466 145.13 66.3504 130.7 66.6936 123.485C66.6936 105.344 52.282 100.809 45.0762 100.809Z" fill="#FFCB66"/>
<rect x="94.1504" y="97.1519" width="16.7576" height="46.6818" fill="#725DFF"/>
<rect x="96.5449" y="43.2882" width="16.7576" height="46.6818" transform="rotate(90 96.5449 43.2882)" fill="#FFCB66"/>
<rect x="96.5449" y="43.2882" width="16.7576" height="46.6818" transform="rotate(90 96.5449 43.2882)" fill="#FF8266"/>
</svg>
